<?xml version="1.0" standalone="no"?>
<!DOCTYPE svg PUBLIC "-//W3C//DTD SVG 20010904//EN"
 "http://www.w3.org/TR/2001/REC-SVG-20010904/DTD/svg10.dtd">
<svg version="1.0" xmlns="http://www.w3.org/2000/svg"
 width="644.000000pt" height="644.000000pt" viewBox="0 0 644.000000 644.000000"
 preserveAspectRatio="xMidYMid meet">
<metadata>
Created by potrace 1.11, written by Peter Selinger 2001-2013
</metadata>
<g transform="translate(0.000000,644.000000) scale(0.100000,-0.100000)"
fill="#000000" stroke="none">
<path d="M2645 6360 c-850 -86 -1602 -515 -2095 -1195 -271 -375 -449 -816
-521 -1295 -33 -215 -33 -596 -2 -800 106 -678 393 -1241 864 -1695 489 -470
1103 -745 1799 -805 707 -61 1460 174 2040 636 113 91 348 326 441 444 394
495 613 1088 635 1720 22 618 -159 1237 -513 1747 -35 51 -69 90 -76 88 -6 -2
-282 -61 -612 -130 -330 -69 -610 -130 -622 -135 l-23 -9 -2 -454 -3 -453
-272 185 -273 184 0 214 c0 117 -2 213 -5 213 -2 0 -357 -74 -787 -165 -430
-91 -788 -164 -794 -163 -11 3 241 588 263 609 8 8 162 41 1838 394 462 98
843 181 848 184 10 10 -186 159 -319 243 -144 92 -398 216 -559 273 -173 62
-396 118 -580 145 -170 25 -516 35 -670 20z m1053 -2495 l262 -176 0 -245 c0
-140 -4 -244 -9 -242 -5 2 -129 84 -275 183 l-266 180 0 244 c0 200 2 242 13
238 8 -3 132 -85 275 -182z m-2133 -713 l270 -227 5 -344 5 -344 87 -82 c156
-147 315 -240 488 -286 114 -31 290 -31 401 -1 231 62 429 231 525 447 55 125
57 144 63 542 l6 372 270 -182 270 -182 -1 -220 c0 -196 -3 -230 -23 -315 -65
-264 -194 -486 -390 -672 -184 -176 -412 -293 -669 -345 -130 -26 -393 -24
-529 5 -284 61 -547 198 -802 418 -160 138 -227 243 -252 394 -11 66 -12 1250
-1 1249 4 0 129 -102 277 -227z"/>
<path d="M5131 5634 c74 -76 173 -186 218 -244 834 -1056 894 -2522 148 -3640
-289 -433 -718 -815 -1172 -1042 -492 -247 -1060 -365 -1586 -330 -445 30
-807 129 -1206 327 -111 56 -200 98 -197 94 9 -15 243 -189 324 -241 424 -273
899 -437 1409 -488 134 -13 418 -13 557 1 525 51 1007 222 1439 511 387 259
698 584 935 978 392 650 530 1439 384 2191 -92 473 -317 961 -620 1339 -155
193 -412 436 -614 580 -158 112 -160 109 -19 -36z"/>
</g>
</svg>
