<?xml version="1.0" encoding="utf-8"?>
<!-- Generator: Adobe Illustrator 22.0.0, SVG Export Plug-In . SVG Version: 6.00 Build 0)  -->
<svg version="1.1" id="Layer_1" xmlns="http://www.w3.org/2000/svg" xmlns:xlink="http://www.w3.org/1999/xlink" x="0px" y="0px"
	 viewBox="0 0 740.2 315.3" style="enable-background:new 0 0 740.2 315.3;" xml:space="preserve">
<style type="text/css">
	.st0{fill:#D35F5F;}
	.st1{fill:none;stroke:#FF5A5A;stroke-width:13.7922;stroke-miterlimit:10;}
	.st2{fill:#FFFFFF;}
	.st3{font-family:'Montserrat-Bold';}
	.st4{font-size:67.2466px;}
	.st5{letter-spacing:13;}
	.st6{fill:#FF5A5A;}
</style>
<path class="st0" d="M248.2,28.9c32.3,28.3,52.6,69.9,52.6,116.2c0,85.4-69.3,154.7-154.7,154.7c-29.8,0-57.6-8.4-81.2-23
	c27.2,23.9,63,38.5,102.1,38.5c85.4,0,154.7-69.3,154.7-154.7C321.7,104.9,292.3,56.2,248.2,28.9z"/>
<line class="st1" x1="159.2" y1="140.9" x2="205.7" y2="172.4"/>
<line class="st1" x1="162.3" y1="101.7" x2="208.7" y2="133.1"/>
<g>
	<text transform="matrix(1 0 0 1 344.8264 141.6696)"><tspan x="0" y="0" class="st2 st3 st4 st5">HARVEY</tspan><tspan x="0" y="80.7" class="st2 st3 st4 st5">DESIGNS</tspan></text>
	<rect x="350.1" y="253" class="st6" width="390.2" height="11.9"/>
</g>
<path class="st6" d="M261.2,58.1L198,71.5v115.4c0,55.7-68.3,95.7-125.5,40.7c-5.4-5.2-8.4-12.4-8.4-19.9v-58.5l27.6,23v33.4
	c34.5,39.9,78.8,15.7,78.8-18.7V77.3l-80.2,17l13.9-31.2l134.9-28.6C213.8,13,181,0,145.1,0C65,0,0,65,0,145.1s65,145.1,145.1,145.1
	s145.1-65,145.1-145.1C290.2,112.5,279.4,82.3,261.2,58.1z"/>
</svg>
