<?xml version="1.0" encoding="utf-8"?>
<!-- Generator: Adobe Illustrator 22.0.0, SVG Export Plug-In . SVG Version: 6.00 Build 0)  -->
<svg version="1.1" xmlns="http://www.w3.org/2000/svg" xmlns:xlink="http://www.w3.org/1999/xlink" x="0px" y="0px"
	 viewBox="0 0 766.3 315.3" style="enable-background:new 0 0 766.3 315.3;" xml:space="preserve">
<style type="text/css">
	.st0{display:none;}
	.st1{display:inline;fill:#30304C;}
	.st2{fill:#D35F5F;}
	.st3{fill:none;stroke:#FF5A5A;stroke-width:13.7922;stroke-miterlimit:10;}
	.st4{fill:#FFFFFF;}
	.st5{fill:#FF5A5A;}
</style>
<g id="Layer_2" class="st0">
	<rect x="0" y="0" class="st1" width="766.3" height="315.3"/>
</g>
<g id="Layer_1">
	<path class="st2" d="M248.2,28.9c32.3,28.3,52.6,69.9,52.6,116.2c0,85.4-69.3,154.7-154.7,154.7c-29.8,0-57.6-8.4-81.2-23
		c27.2,23.9,63,38.5,102.1,38.5c85.4,0,154.7-69.3,154.7-154.7C321.7,104.9,292.3,56.2,248.2,28.9z"/>
	<line class="st3" x1="159.2" y1="140.9" x2="205.7" y2="172.4"/>
	<line class="st3" x1="162.3" y1="101.7" x2="208.7" y2="133.1"/>
	<g>
		<g>
			<path class="st4" d="M396.9,89.1v50.3h-11.6v-20.6h-22.8v20.6h-11.6V89.1h11.6v19.8h22.8V89.1H396.9z"/>
			<path class="st4" d="M456.3,128.6H433l-4.5,10.8h-11.9L439,89.1h11.5l22.5,50.3h-12.2L456.3,128.6z M452.7,119.8l-8-19.3l-8,19.3
				H452.7z"/>
			<path class="st4" d="M524.7,139.4l-9.7-14h-0.6h-10.1v14h-11.6V89.1h21.8c13.4,0,21.8,7,21.8,18.3c0,7.5-3.8,13.1-10.3,15.9
				l11.3,16.2H524.7z M513.8,98.6h-9.5v17.5h9.5c7.1,0,10.7-3.3,10.7-8.8C524.5,101.8,520.9,98.6,513.8,98.6z"/>
			<path class="st4" d="M608.2,89.1l-21.8,50.3h-11.5l-21.7-50.3h12.6l15.3,35.9l15.5-35.9H608.2z"/>
			<path class="st4" d="M665.6,130.1v9.3h-38.9V89.1h38v9.3h-26.4v10.9h23.4v9.1h-23.4v11.6H665.6z"/>
			<path class="st4" d="M712.9,121.6v17.8h-11.6v-18l-19.5-32.3h12.4l13.4,22.3L721,89.1h11.4L712.9,121.6z"/>
			<path class="st4" d="M350.8,175.3h22.8c16.5,0,27.7,9.9,27.7,25.1c0,15.2-11.3,25.1-27.7,25.1h-22.8V175.3z M373.1,216.1
				c10,0,16.5-6,16.5-15.6c0-9.6-6.5-15.6-16.5-15.6h-10.6v31.2H373.1z"/>
			<path class="st4" d="M463.5,216.3v9.3h-38.9v-50.3h38v9.3h-26.4v10.9h23.4v9.1h-23.4v11.6H463.5z"/>
			<path class="st4" d="M483.1,220.7l4-8.8c4.2,3.1,10.6,5.2,16.6,5.2c6.9,0,9.7-2.3,9.7-5.4c0-9.4-29.2-2.9-29.2-21.6
				c0-8.5,6.9-15.7,21.2-15.7c6.3,0,12.8,1.5,17.5,4.5l-3.6,8.8c-4.7-2.7-9.5-4-13.9-4c-6.9,0-9.6,2.6-9.6,5.7
				c0,9.3,29.2,2.9,29.2,21.3c0,8.4-7,15.6-21.3,15.6C495.6,226.5,487.6,224.1,483.1,220.7z"/>
			<path class="st4" d="M547.3,175.3h11.6v50.3h-11.6V175.3z"/>
			<path class="st4" d="M619.2,199.7h10.6v20.4c-5.5,4.2-13.1,6.4-20.3,6.4c-15.8,0-27.4-10.8-27.4-26s11.6-26,27.7-26
				c8.8,0,16.2,3,21.1,8.7l-7.5,6.9c-3.7-3.9-7.9-5.7-13-5.7c-9.8,0-16.5,6.5-16.5,16.1c0,9.4,6.7,16.1,16.3,16.1
				c3.2,0,6.1-0.6,9.1-2.2V199.7z"/>
			<path class="st4" d="M701.1,175.3v50.3h-9.6l-25.1-30.5v30.5H655v-50.3h9.6l25,30.5v-30.5H701.1z"/>
			<path class="st4" d="M723.5,220.7l4-8.8c4.2,3.1,10.6,5.2,16.6,5.2c6.9,0,9.7-2.3,9.7-5.4c0-9.4-29.2-2.9-29.2-21.6
				c0-8.5,6.9-15.7,21.2-15.7c6.3,0,12.8,1.5,17.5,4.5l-3.6,8.8c-4.7-2.7-9.5-4-13.9-4c-6.9,0-9.6,2.6-9.6,5.7
				c0,9.3,29.2,2.9,29.2,21.3c0,8.4-7,15.6-21.3,15.6C736,226.5,727.9,224.1,723.5,220.7z"/>
		</g>
		<rect x="350.4" y="258.3" class="st5" width="416.9" height="12.7"/>
	</g>
	<path class="st5" d="M261.2,58.1L198,71.5v115.4c0,55.7-68.3,95.7-125.5,40.7c-5.4-5.2-8.4-12.4-8.4-19.9v-58.5l27.6,23v33.4
		c34.5,39.9,78.8,15.7,78.8-18.7V77.3l-80.2,17l13.9-31.2l134.9-28.6C213.8,13,181,0,145.1,0C65,0,0,65,0,145.1
		s65,145.1,145.1,145.1s145.1-65,145.1-145.1C290.2,112.5,279.4,82.3,261.2,58.1z"/>
	<g>
	</g>
	<g>
	</g>
	<g>
	</g>
	<g>
	</g>
	<g>
	</g>
	<g>
	</g>
</g>
</svg>
