<?xml version="1.0" encoding="utf-8"?>
<!-- Generator: Adobe Illustrator 22.0.0, SVG Export Plug-In . SVG Version: 6.00 Build 0)  -->
<svg version="1.1" id="Layer_1" xmlns="http://www.w3.org/2000/svg" xmlns:xlink="http://www.w3.org/1999/xlink" x="0px" y="0px"
	 viewBox="0 0 740.2 315.3" style="enable-background:new 0 0 740.2 315.3;" xml:space="preserve">
<style type="text/css">
	.st0{fill:#D35F5F;}
	.st1{fill:none;stroke:#FF5A5A;stroke-width:13.7922;stroke-miterlimit:10;}
	.st2{fill:#FFFFFF;}
	.st3{fill:#FF5A5A;}
</style>
<path class="st0" d="M248.2,28.9c32.3,28.3,52.6,69.9,52.6,116.2c0,85.4-69.3,154.7-154.7,154.7c-29.8,0-57.6-8.4-81.2-23
	c27.2,23.9,63,38.5,102.1,38.5c85.4,0,154.7-69.3,154.7-154.7C321.7,104.9,292.3,56.2,248.2,28.9z"/>
<line class="st1" x1="159.2" y1="140.9" x2="205.7" y2="172.4"/>
<line class="st1" x1="162.3" y1="101.7" x2="208.7" y2="133.1"/>
<g>
	<g>
		<path class="st2" d="M393.6,94.6v47.1h-10.9v-19.3h-21.4v19.3h-10.9V94.6h10.9v18.6h21.4V94.6H393.6z"/>
		<path class="st2" d="M449.2,131.6h-21.9l-4.2,10.1H412l21-47.1h10.8l21,47.1h-11.4L449.2,131.6z M445.8,123.3l-7.5-18l-7.5,18
			H445.8z"/>
		<path class="st2" d="M513.1,141.7l-9.1-13.1h-0.5H494v13.1h-10.9V94.6h20.4c12.6,0,20.4,6.5,20.4,17.1c0,7.1-3.6,12.2-9.7,14.9
			l10.6,15.1H513.1z M502.9,103.5H494v16.4h8.9c6.7,0,10-3.1,10-8.2C512.9,106.5,509.6,103.5,502.9,103.5z"/>
		<path class="st2" d="M591.3,94.6l-20.4,47.1h-10.8l-20.3-47.1h11.8l14.3,33.6l14.5-33.6H591.3z"/>
		<path class="st2" d="M645.1,132.9v8.7h-36.4V94.6h35.6v8.7h-24.7v10.2h21.9v8.5h-21.9v10.9H645.1z"/>
		<path class="st2" d="M689.3,125v16.7h-10.9v-16.8l-18.2-30.3h11.6l12.6,20.9l12.6-20.9h10.7L689.3,125z"/>
		<path class="st2" d="M350.4,175.3h21.4c15.4,0,26,9.3,26,23.5c0,14.3-10.6,23.5-26,23.5h-21.4V175.3z M371.3,213.4
			c9.3,0,15.5-5.6,15.5-14.6c0-9-6.1-14.6-15.5-14.6h-10v29.2H371.3z"/>
		<path class="st2" d="M455.8,213.6v8.7h-36.4v-47.1H455v8.7h-24.7v10.2h21.9v8.5h-21.9v10.9H455.8z"/>
		<path class="st2" d="M474.3,217.7l3.7-8.2c4,2.9,9.9,4.9,15.5,4.9c6.5,0,9.1-2.2,9.1-5c0-8.8-27.4-2.8-27.4-20.2
			c0-8,6.5-14.7,19.8-14.7c5.9,0,12,1.4,16.3,4.2l-3.4,8.3c-4.4-2.5-8.9-3.7-13-3.7c-6.5,0-8.9,2.4-8.9,5.4c0,8.7,27.4,2.7,27.4,20
			c0,7.9-6.5,14.6-20,14.6C486,223.2,478.4,221,474.3,217.7z"/>
		<path class="st2" d="M534.3,175.3h10.9v47.1h-10.9V175.3z"/>
		<path class="st2" d="M601.6,198.1h10v19.1c-5.2,3.9-12.3,6-19,6c-14.8,0-25.7-10.2-25.7-24.3c0-14.2,10.9-24.3,25.9-24.3
			c8.3,0,15.1,2.8,19.7,8.1l-7,6.5c-3.4-3.6-7.4-5.3-12.2-5.3c-9.1,0-15.4,6.1-15.4,15.1c0,8.8,6.3,15.1,15.3,15.1
			c3,0,5.7-0.5,8.5-2V198.1z"/>
		<path class="st2" d="M678.3,175.3v47.1h-8.9l-23.5-28.6v28.6h-10.8v-47.1h9l23.4,28.6v-28.6H678.3z"/>
		<path class="st2" d="M699.2,217.7l3.7-8.2c4,2.9,9.9,4.9,15.5,4.9c6.5,0,9.1-2.2,9.1-5c0-8.8-27.4-2.8-27.4-20.2
			c0-8,6.5-14.7,19.8-14.7c5.9,0,12,1.4,16.3,4.2l-3.4,8.3c-4.4-2.5-8.9-3.7-13-3.7c-6.5,0-8.9,2.4-8.9,5.4c0,8.7,27.4,2.7,27.4,20
			c0,7.9-6.5,14.6-20,14.6C710.9,223.2,703.4,221,699.2,217.7z"/>
	</g>
	<rect x="350.1" y="253" class="st3" width="390.2" height="11.9"/>
</g>
<path class="st3" d="M261.2,58.1L198,71.5v115.4c0,55.7-68.3,95.7-125.5,40.7c-5.4-5.2-8.4-12.4-8.4-19.9v-58.5l27.6,23v33.4
	c34.5,39.9,78.8,15.7,78.8-18.7V77.3l-80.2,17l13.9-31.2l134.9-28.6C213.8,13,181,0,145.1,0C65,0,0,65,0,145.1s65,145.1,145.1,145.1
	s145.1-65,145.1-145.1C290.2,112.5,279.4,82.3,261.2,58.1z"/>
<g>
</g>
<g>
</g>
<g>
</g>
<g>
</g>
<g>
</g>
<g>
</g>
</svg>
