<svg id="Layer_1" data-name="Layer 1" xmlns="http://www.w3.org/2000/svg" width="753.68" height="315.26" viewBox="0 0 753.68 315.26"><title>JHARVEY-LOGO-SVG</title><circle cx="145.11" cy="145.11" r="145.11" fill="#ff5a5a"/><path d="M248.24,28.93A154.69,154.69,0,0,1,64.92,276.79,154.69,154.69,0,1,0,248.24,28.93Z" fill="#d35f5f"/><path d="M72.49,227.53a27.61,27.61,0,0,1-8.43-19.92V149.14l27.59,23v33.39c34.53,39.91,78.79,15.67,78.79-18.7V63.14H198V186.82C198,242.51,129.72,282.54,72.49,227.53Z" fill="#fff"/><line x1="159.21" y1="140.92" x2="205.71" y2="172.36" fill="none" stroke="#ff5a5a" stroke-miterlimit="10" stroke-width="13.79"/><line x1="162.33" y1="101.7" x2="208.73" y2="133.08" fill="none" stroke="#ff5a5a" stroke-miterlimit="10" stroke-width="13.79"/><polygon points="90.25 94.29 104.15 63.14 241.98 33.94 262.36 57.83 90.25 94.29" fill="#fff"/><text transform="translate(344.83 141.67)" font-size="67.25" font-family="Montserrat-Bold, Montserrat" font-weight="700" letter-spacing="0.2em">HAR<tspan x="195.62" y="0" letter-spacing="0.18em">V</tspan><tspan x="258.22" y="0" letter-spacing="0.19em">E</tspan><tspan x="316.33" y="0" letter-spacing="0.2em">Y</tspan><tspan letter-spacing="0.2em"><tspan x="0" y="80.7">DESIGNS</tspan></tspan></text><rect x="350.07" y="252.98" width="390.17" height="11.91" fill="#ff5a5a"/></svg>