<svg xmlns="http://www.w3.org/2000/svg" width="753.68" height="315.26" viewBox="0 0 753.68 315.26"><title>JHARVEY-LOGO-SVG-WHITE</title><text transform="translate(344.83 141.67)" font-size="67.25" fill="#fff" font-family="Montserrat-Bold, Montserrat" font-weight="700" letter-spacing="0.2em">HAR<tspan x="195.62" y="0" letter-spacing="0.18em">V</tspan><tspan x="258.22" y="0" letter-spacing="0.19em">E</tspan><tspan x="316.33" y="0" letter-spacing="0.2em">Y</tspan><tspan letter-spacing="0.2em"><tspan x="0" y="80.7">DESIGNS</tspan></tspan></text><rect x="350.07" y="252.98" width="390.17" height="11.91" fill="#ff5a5a"/><path d="M248.24,28.93A154.69,154.69,0,0,1,64.92,276.79,154.69,154.69,0,1,0,248.24,28.93Z" transform="translate(0 0)" fill="#fff"/><path d="M261.22,58.07,198,71.45v46.07L170.44,98.86V77.3l-80.19,17,13.9-31.15L239.08,34.55a145,145,0,1,0,22.14,23.52ZM198,186.82c0,55.69-68.31,95.72-125.54,40.71a27.61,27.61,0,0,1-8.43-19.92V149.14l27.59,23v33.39c34.53,39.91,78.79,15.67,78.79-18.7v-30L198,175.5Zm0-28-27.59-18.66V115.51L198,134.17Z" transform="translate(0 0)" fill="#fff"/></svg>