<svg xmlns="http://www.w3.org/2000/svg" width="740.24" height="315.26" viewBox="0 0 740.24 315.26"><title>JHARVEY-LOGO-SVG</title><circle cx="145.11" cy="145.11" r="145.11" fill="#ff5a5a"/><path d="M248.24,28.93A154.69,154.69,0,0,1,64.92,276.79,154.69,154.69,0,1,0,248.24,28.93Z" fill="#d35f5f"/><path d="M72.49,227.53a27.61,27.61,0,0,1-8.43-19.92V149.14l27.59,23v33.39c34.53,39.91,78.79,15.67,78.79-18.7V63.14H198V186.82C198,242.51,129.72,282.54,72.49,227.53Z" fill="#fff"/><line x1="159.21" y1="140.92" x2="205.71" y2="172.36" fill="none" stroke="#ff5a5a" stroke-miterlimit="10" stroke-width="13.79"/><line x1="162.33" y1="101.7" x2="208.73" y2="133.08" fill="none" stroke="#ff5a5a" stroke-miterlimit="10" stroke-width="13.79"/><path d="M393.58,94.6v47.07H382.69v-19.3H361.3v19.3H350.41V94.6H361.3v18.56h21.39V94.6Z"/><path d="M449.19,131.58H427.34l-4.17,10.09H412L433,94.6h10.76l21,47.07H453.36Zm-3.43-8.27-7.46-18-7.46,18Z"/><path d="M513.14,141.67l-9.07-13.11h-10v13.11h-10.9V94.6h20.38c12.57,0,20.44,6.52,20.44,17.08,0,7.06-3.56,12.24-9.68,14.86l10.55,15.13Zm-10.22-38.2h-8.87v16.41h8.87c6.66,0,10-3.09,10-8.2S509.58,103.47,502.92,103.47Z"/><path d="M591.28,94.6l-20.37,47.07H560.15L539.84,94.6h11.77l14.32,33.62L580.46,94.6Z"/><path d="M645.08,132.93v8.74H608.63V94.6h35.58v8.74H619.46v10.22h21.85V122H619.46v10.9Z"/><path d="M689.33,125v16.68h-10.9V124.86L660.21,94.6h11.57l12.57,20.91L696.93,94.6h10.69Z"/><path d="M350.41,175.29h21.38c15.4,0,26,9.28,26,23.54s-10.56,23.54-26,23.54H350.41Zm20.84,38.13c9.35,0,15.47-5.58,15.47-14.59s-6.12-14.59-15.47-14.59H361.3v29.18Z"/><path d="M455.85,213.62v8.75H419.4V175.29H455V184H430.23v10.22h21.85v8.47H430.23v10.89Z"/><path d="M474.27,217.73l3.7-8.21a27.72,27.72,0,0,0,15.54,4.91c6.45,0,9.08-2.15,9.08-5,0-8.81-27.37-2.76-27.37-20.24,0-8,6.45-14.66,19.83-14.66,5.92,0,12,1.41,16.34,4.17L508,186.93a26.54,26.54,0,0,0-13-3.7c-6.46,0-8.95,2.42-8.95,5.38,0,8.67,27.37,2.69,27.37,20,0,7.87-6.52,14.59-20,14.59C486,223.17,478.44,221,474.27,217.73Z"/><path d="M534.32,175.29h10.9v47.08h-10.9Z"/><path d="M601.64,198.09h10v19.1a32.49,32.49,0,0,1-19,6c-14.8,0-25.69-10.15-25.69-24.34s10.89-24.34,25.89-24.34c8.27,0,15.13,2.82,19.7,8.13l-7,6.46a15.94,15.94,0,0,0-12.17-5.31c-9.15,0-15.4,6.12-15.4,15.06s6.25,15.06,15.26,15.06a17.42,17.42,0,0,0,8.48-2Z"/><path d="M678.3,175.29v47.08h-8.95l-23.46-28.58v28.58H635.13V175.29h9l23.4,28.58V175.29Z"/><path d="M699.21,217.73l3.7-8.21a27.72,27.72,0,0,0,15.53,4.91c6.46,0,9.08-2.15,9.08-5,0-8.81-27.37-2.76-27.37-20.24,0-8,6.46-14.66,19.84-14.66,5.92,0,12,1.41,16.34,4.17L733,186.93a26.58,26.58,0,0,0-13.05-3.7c-6.45,0-8.94,2.42-8.94,5.38,0,8.67,27.37,2.69,27.37,20,0,7.87-6.52,14.59-20,14.59C710.91,223.17,703.38,221,699.21,217.73Z"/><rect x="350.07" y="252.98" width="390.17" height="11.91" fill="#ff5a5a"/><path d="M239.48,34.47,104.15,63.14,90.25,94.29,261.62,58A145.86,145.86,0,0,0,239.48,34.47Z" fill="#fff"/></svg>